<?xml version="1.0" encoding="UTF-8"?><svg id="Capa_1" xmlns="http://www.w3.org/2000/svg" viewBox="0 0 207 37.88"><defs><style>.cls-1{fill:#fff;stroke-width:0px;}</style></defs><path class="cls-1" d="m200.53,11.36c-.88-.27-1.8-.41-2.73-.41H19.88v-.21c0-2.39,1.95-4.34,4.34-4.34h33.53c1.76,0,3.2-1.44,3.2-3.2S59.51,0,57.75,0H24.22c-5.92,0-10.74,4.82-10.74,10.74v.21h-.01C6.04,10.95,0,16.99,0,24.41s6.04,13.47,13.47,13.47h14.93c1.77,0,3.2-1.44,3.2-3.2s-1.44-3.2-3.2-3.2h-14.93c-3.9,0-7.07-3.17-7.07-7.06s3.17-7.06,7.07-7.06h64.57v14.13h-37.61c-1.77,0-3.2,1.44-3.2,3.2s1.44,3.2,3.2,3.2h157.36c.93,0,1.85-.14,2.74-.41,3.87-1.21,6.47-4.74,6.47-8.79v-8.52c0-4.05-2.6-7.59-6.47-8.79Zm.07,8.79v8.52c0,1.55-1.26,2.8-2.81,2.8h-7.21v-14.13h7.21c1.55,0,2.81,1.26,2.81,2.8Zm-16.42-2.8v14.13h-99.31v-14.13h99.31Z"/></svg>