<?xml version="1.0" encoding="UTF-8"?><svg id="Capa_1" xmlns="http://www.w3.org/2000/svg" viewBox="0 0 206.91 222.62"><defs><style>.cls-1{fill:#fff;stroke-width:0px;}</style></defs><path class="cls-1" d="m199.26,56.76c-2.87-12.88-7.94-24.84-15.09-35.54l-.03-.04c-8.45-11.43-20.44-18.78-33.74-20.7-4.76-.78-13.6-1.27-19.4,4.22-.34.33-.66.68-.96,1.05-1.81-1.29-3.95-2-6.14-2.01h-40.92c-2.18.01-4.32.72-6.13,2.01-.31-.37-.63-.73-.98-1.07C70.1-.78,61.25-.3,56.51.47c-13.32,1.93-25.31,9.28-33.79,20.75-7.14,10.7-12.22,22.66-15.07,35.51C1.75,79.85-.76,103.74.2,127.73c.47,11.94,1.8,23.94,3.97,35.68,1.85,10,4.16,22.45,10.13,32.94.94,1.67,1.99,3.31,3.1,4.83.51.73.9,1.24,1.26,1.65,6.56,8.02,16.02,12.44,25.78,12.13,2.22-.02,4.44-.22,6.62-.58,8.47,5.38,18.12,8.23,27.93,8.24h48.89c9.82,0,19.48-2.86,27.96-8.24,2.18.37,4.41.56,6.6.58,9.82.29,19.2-4.09,25.74-12.06.45-.53.87-1.08,1.27-1.66,1.13-1.55,2.18-3.18,3.11-4.85,5.96-10.45,8.27-22.83,10.12-32.77l.04-.22c2.17-11.74,3.5-23.74,3.97-35.67.96-23.98-1.55-47.87-7.44-70.96Zm-82.18,144.89c-2.51,0-4.55,2.19-4.55,4.88v6.32h-4.53v-13.79c0-2.69-2.04-4.88-4.55-4.88s-4.55,2.19-4.55,4.88v13.79h-4.53v-6.32c0-2.69-2.04-4.88-4.55-4.88s-4.55,2.19-4.55,4.88v6.32h-6.25c-13.25,0-25.91-6.22-34.74-17.07-8.86-10.88-13.06-25.43-11.54-39.92l8.65-82.15c2.09-19.72,14.13-36.03,31.03-42.42l-10.2,15.63c-1.41,2.16-.94,5.18,1.05,6.74.98.77,2.18,1.08,3.38.88,1.24-.21,2.32-.93,3.03-2.03l15.61-23.95c.63-.04,1.24-.09,1.84-.1l-8.51,31.08c-.33,1.23-.21,2.52.34,3.65.57,1.16,1.53,2,2.72,2.4.4.12.81.18,1.2.18,2.06,0,3.9-1.41,4.47-3.51l9.27-33.84h2.27v43.67c0,2.69,2.04,4.88,4.55,4.88s4.55-2.19,4.55-4.88V28.44h2.26l9.27,33.84c.57,2.06,2.36,3.51,4.38,3.51.45,0,.9-.07,1.33-.21,1.15-.38,2.13-1.25,2.69-2.39.56-1.13.68-2.43.34-3.65l-8.51-31.08c.6.02,1.2.06,1.83.1l15.63,23.95c.94,1.45,2.54,2.23,4.18,2.06,1.63-.17,3.05-1.27,3.71-2.87.65-1.55.48-3.39-.42-4.78l-10.18-15.63c16.9,6.4,28.93,22.72,31.01,42.45l8.65,82.15c1.52,14.49-2.68,29.04-11.54,39.92-8.83,10.85-21.49,17.07-34.74,17.07h-6.25v-6.32c0-2.69-2.04-4.88-4.55-4.88ZM71.62,17.27v3.98c-21.35,7.01-36.73,27.07-39.28,51.35l-8.66,82.15c-2.01,18.56,3.96,37.04,16.03,50.1-5.45-.92-10.51-3.91-14.2-8.48h0c-.29-.36-.56-.72-.85-1.12-.92-1.26-1.78-2.59-2.55-3.96-4.78-8.38-6.82-18.05-9-29.81-2.07-11.22-3.35-22.71-3.8-34.16-.92-22.97,1.47-45.85,7.13-68.05,2.57-11.66,7.14-22.49,13.54-32.15,6.97-9.47,16.87-15.51,27.87-17.01l.15-.03c1.27-.34,2.56-.52,3.83-.52,2.82,0,5.6.83,8.08,2.46,1.24,1.35,1.87,3.22,1.71,5.23Zm54.55,1.93c-2.3-.33-4.62-.51-6.93-.52h-31.59c-2.3.02-4.63.19-6.92.52v-3.11c0-1.43,1.02-2.59,2.27-2.59h40.91c1.25,0,2.26,1.16,2.26,2.59v3.11Zm57.05,135.59l-8.65-82.15c-2.54-24.3-17.92-44.37-39.29-51.39v-4.06c-.15-1.93.48-3.8,1.73-5.15,3.6-2.35,7.82-3.04,11.89-1.94l.14.03c11.01,1.49,20.9,7.53,27.84,16.96,6.43,9.7,11,20.53,13.58,32.23,5.65,22.15,8.05,45.03,7.13,68.01h0c-.45,11.46-1.73,22.97-3.8,34.19-2.18,11.76-4.22,21.43-9.02,29.85-.78,1.38-1.64,2.71-2.56,3.98-.26.38-.53.71-.86,1.12-3.69,4.55-8.73,7.52-14.16,8.43,12.08-13.06,18.04-31.55,16.03-50.11Z"/></svg>