<?xml version="1.0" encoding="UTF-8"?>
<svg id="Capa_1" xmlns="http://www.w3.org/2000/svg" viewBox="0 0 132.61 222.25">
    <defs>
        <style>.cls-1{fill:#fff;stroke-width:0px;}</style>
    </defs>
    <path class="cls-1"
          d="m66.31,182.23c-11.03,0-20.01,8.98-20.01,20.01s8.98,20.01,20.01,20.01,20.01-8.98,20.01-20.01-8.98-20.01-20.01-20.01Zm0,30.96c-6.04,0-10.95-4.91-10.95-10.95s4.91-10.95,10.95-10.95,10.95,4.91,10.95,10.95-4.91,10.95-10.95,10.95Z"/>
    <path class="cls-1"
          d="m132.52,62.95C130.72,28.36,102.17.71,67.52.01c-.46,0-.91-.01-1.36-.01C33.19,0,4.89,24.6.34,57.21c-.15,1.09-.25,2.76-.33,5.57-.19,6.64,2.26,12.91,6.89,17.67,4.63,4.76,10.83,7.38,17.47,7.38,13.13,0,24.05-10.66,24.36-23.77,0-.03,0-.06.01-.1,1.21-8.66,8.68-15.1,17.46-15.1.11,0,.22,0,.33,0,4.38.09,8.58,1.86,11.82,5,3.23,3.13,5.14,7.26,5.37,11.62.25,4.89-1.45,9.53-4.81,13.07-3.34,3.52-7.84,5.46-12.67,5.49-13.52.06-24.52,10.95-24.52,24.28v34.33c0,13.43,10.78,24.54,24.02,24.76.14,0,.28,0,.42,0,6.45,0,12.52-2.48,17.13-7.01,4.71-4.63,7.3-10.82,7.3-17.42v-14.75c8.98-3.56,17.15-9.06,23.76-16.02,12.67-13.35,19.13-30.84,18.17-49.25Zm-85.93,4.31c.22-.14.42-.3.62-.47-.19.17-.39.33-.62.47Zm.72-.54c.21-.19.39-.4.56-.63-.16.22-.35.43-.56.63Zm.6-.68c.18-.24.33-.5.46-.78-.12.27-.28.53-.46.78Zm59.87,39.92c-6.35,6.69-14.37,11.81-23.18,14.82-1.83.62-3.07,2.35-3.07,4.29v17.91c0,4.16-1.63,8.05-4.59,10.96-2.96,2.91-6.92,4.47-11.05,4.41-8.33-.14-15.11-7.18-15.11-15.7v-34.33c0-8.35,6.95-15.18,15.5-15.22,7.33-.03,14.15-2.98,19.2-8.31,5.08-5.35,7.67-12.38,7.28-19.78-.35-6.66-3.23-12.93-8.11-17.66-4.89-4.73-11.26-7.41-17.95-7.54-.17,0-.34,0-.5,0-13.28,0-24.6,9.77-26.43,22.89h0c-.06.35-.1.73-.11,1.14-.19,8.24-7.05,14.94-15.3,14.94-4.17,0-8.07-1.65-10.98-4.64-2.91-2.99-4.44-6.93-4.33-11.1.07-2.33.15-3.87.25-4.58,3.93-28.17,28.37-49.41,56.84-49.41.39,0,.78,0,1.17.01,29.93.6,54.59,24.48,56.14,54.35.82,15.9-4.75,31.01-15.7,42.54Z"/>
</svg>